<svg id="Layer_1" data-name="Layer 1" xmlns="http://www.w3.org/2000/svg" viewBox="0 0 168 168"><path d="M19.65,107.45c7.4,0,12.5,2.6,12.5,10.7a10.62,10.62,0,0,1-4.5,8.6l5.5,11.3h-7.9c-1.5-3.1-2.9-6.3-4.4-9.4h-4.8v9.4h-7v-30.6Zm-3.6,15.2h4.2a4.49,4.49,0,0,0,4.8-4.2v-.6c0-2.1-1.2-4.5-4.8-4.5h-4.2Z" style="fill:#f5f5f5"/><path d="M43.35,126.35v-18.9h7V127a5.57,5.57,0,0,0,5.4,5.7h.5a5.55,5.55,0,0,0,5.8-5.2v-20h7v18.9c0,7.8-3.9,12.2-12.8,12.2S43.35,134.15,43.35,126.35Z" style="fill:#f5f5f5"/><path d="M104.25,115.55a7.69,7.69,0,0,1-3.9,6.6v.2c3.9,1.3,5,3.9,5,7,0,5.3-4.1,8.8-10.5,8.8H81.55v-30.6h12.9C101.25,107.45,104.25,111.25,104.25,115.55Zm-11,4.2c2.1,0,4.1-.8,4.1-3.4,0-2-1.6-2.9-3.9-2.9h-4.8v6.4h4.6Zm5,9c0-2.3-1.6-3.1-4-3.1h-5.6v6.4h5.8c2.7,0,3.8-1.3,3.8-3.3Z" style="fill:#f5f5f5"/><path d="M116.75,107.45h7v30.6h-7Z" style="fill:#f5f5f5"/><path d="M143.55,119.05v19h-7v-30.6h7.5l12.4,19.6v-19.6h6.9v30.6H156Z" style="fill:#f5f5f5"/><path d="M38.05,70a4.4,4.4,0,1,0,4.4,4.4h0A4.31,4.31,0,0,0,38.05,70Z" style="fill:#00babc"/><path d="M29.55,53.75a4.3,4.3,0,1,0-4.3-4.3h0a4.27,4.27,0,0,0,4.3,4.3Z" style="fill:#00babc"/><path d="M47.45,55.15a4.1,4.1,0,1,0,4.1,4.1,4.12,4.12,0,0,0-4.1-4.1Z" style="fill:#00babc"/><path d="M25.45,87.15c-.1,0-.1-.1,0,0L23,79.85c0-.1-.1-.1-.2-.1a.1.1,0,0,0-.1.1l-2.5,7.2a.1.1,0,0,1-.1.1l-7.2,2.5c-.1,0-.1.1-.1.2l.1.1,7.2,2.7.1.1,2.5,7c0,.1.1.1.2.1a.1.1,0,0,0,.1-.1l2.5-7.2a.1.1,0,0,1,.1-.1l7.3-2.4c.1,0,.1-.1.1-.2l-.1-.1Z" style="fill:#00babc"/><path d="M40.55,44.25a115.56,115.56,0,0,1,46.9-11h.1a1.9,1.9,0,0,0-.2-3.8,118.41,118.41,0,0,0-47.6,13.1,1,1,0,0,0-.4,1.2.88.88,0,0,0,1.2.5Z" style="fill:#00babc"/><path d="M160,82a4.45,4.45,0,0,0,.3-8.9,5.23,5.23,0,0,0-1.8.3,100.33,100.33,0,0,0-9.7-7.5l-.1-.1-.2-.1-.2-.1h-.9l-17.8,3a89.72,89.72,0,0,0-36-8.2,1.84,1.84,0,0,0-1.9,1.9,2,2,0,0,0,1.9,2h0a68,68,0,0,1,9,.6,85.81,85.81,0,0,1,25.8,7.4.76.76,0,0,0,.5.2,83.68,83.68,0,0,1,26.8,20,4.71,4.71,0,0,0-.4,1.7,4.5,4.5,0,1,0,4.6-4.4,3,3,0,0,0-1.3.2,87.62,87.62,0,0,0-23.1-18.4l11.8-2c3,2.1,5.9,4.3,8.7,6.7a4.25,4.25,0,0,0-.2,1.1A4.31,4.31,0,0,0,160,82Z" style="fill:#00babc"/><path d="M129.05,83.05a4,4,0,0,0-2.4.7A73.49,73.49,0,0,0,53,86.05a.89.89,0,0,0-.3,1.3,1,1,0,0,0,1.4.3,70.42,70.42,0,0,1,70.6-.9c0,.2-.1.4-.1.6a4.5,4.5,0,0,0,9,.2A4.61,4.61,0,0,0,129.05,83.05Z" style="fill:#00babc"/><path d="M78.35,49.05c-2.3.5-4.6,1-6.9,1.6s-4.5,1.3-6.7,2.1-4.4,1.6-6.6,2.6a1,1,0,0,0,.8,1.8h0c2.2-.8,4.3-1.6,6.5-2.3s4.4-1.3,6.7-1.8,4.5-1,6.7-1.4,4.5-.7,6.8-.9a104.52,104.52,0,0,1,13.7-.4,77.89,77.89,0,0,1,9.6.9,4.49,4.49,0,1,0,3-5.6,4.7,4.7,0,0,0-2.5,1.9,83.72,83.72,0,0,0-10-.5,111.24,111.24,0,0,0-14.1.9A53.72,53.72,0,0,0,78.35,49.05Z" style="fill:#00babc"/><path d="M108.55,33.75a130,130,0,0,1,17.3,3.7l3.4,12.6h0c.1.2.1.3.2.5h0c.1.1.2.3.4.4l.1.1a.76.76,0,0,0,.4.2,75.07,75.07,0,0,1,7.7,3.4h0a4.5,4.5,0,1,0,4.7-4.3h0a4.27,4.27,0,0,0-2.9,1c-2.4-1.1-4.7-2.2-7.1-3.2l-2.5-9.4a117.47,117.47,0,0,1,26.4,12.9c0,.2-.1.4-.1.6a4.67,4.67,0,1,0,2.2-3.7A122.22,122.22,0,0,0,109.35,30a1.9,1.9,0,0,0-2.1,1.6A1.59,1.59,0,0,0,108.55,33.75Z" style="fill:#00babc"/><path d="M14.85,74.75l2.4-9c0-.1.1-.1.2-.2l9-2.4c.1,0,.2-.2.2-.3s-.1-.1-.2-.2l-9-2.4c-.1,0-.1-.1-.2-.2l-2.4-9c0-.1-.2-.2-.3-.2s-.1.1-.2.2l-2.4,9c0,.1-.1.1-.2.2l-9,2.4c-.1,0-.2.2-.2.3s.1.1.2.2l9,2.4c.1,0,.1.1.2.2l2.4,9c0,.1.2.2.3.2Z" style="fill:#00babc"/></svg>