<svg id="Logo" xmlns="http://www.w3.org/2000/svg" viewBox="0 0 1545.8 170.14"><g id="Imagotype"><path d="M47.47,108.46c7.4,0,12.54,2.63,12.54,10.71a10.7,10.7,0,0,1-4.5,8.58L61,139.06H53.13c-1.49-3.15-2.89-6.29-4.42-9.44H43.86v9.44h-7v-30.6Zm-3.61,15.21h4.21a4.47,4.47,0,0,0,4.76-4.16q0-.3,0-.6c0-2.08-1.15-4.5-4.76-4.5H43.86Z" style="fill:#f5f5f5"/><path d="M71.23,127.37V108.46h7V128a5.52,5.52,0,0,0,5.36,5.66h.47a5.51,5.51,0,0,0,5.81-5.19c0-.15,0-.31,0-.46V108.46h7v18.87c0,7.82-3.91,12.24-12.79,12.24S71.23,135.15,71.23,127.37Z" style="fill:#f5f5f5"/><path d="M132.09,116.57a7.44,7.44,0,0,1-3.87,6.55v.17a6.69,6.69,0,0,1,5,7c0,5.27-4.08,8.8-10.5,8.8H109.44V108.46h12.92C129.12,108.46,132.09,112.32,132.09,116.57Zm-11,4.25c2.13,0,4.12-.8,4.12-3.44,0-2-1.57-2.93-3.91-2.93h-4.8v6.37Zm5,9c0-2.34-1.62-3.06-4-3.06h-5.64v6.42h5.82c2.72-.07,3.79-1.43,3.79-3.43Z" style="fill:#f5f5f5"/><path d="M144.57,108.46h7v30.6h-7Z" style="fill:#f5f5f5"/><path d="M171.4,120.1v19h-7V108.46h7.53l12.41,19.59V108.46h6.93v30.6h-7.36Z" style="fill:#f5f5f5"/><path d="M65.92,71a4.44,4.44,0,1,0,4.44,4.44h0A4.44,4.44,0,0,0,65.92,71Z" style="fill:#00babc"/><path d="M57.39,54.8a4.3,4.3,0,1,0-4.29-4.31h0a4.29,4.29,0,0,0,4.28,4.3Z" style="fill:#00babc"/><path d="M75.26,56.15a4.13,4.13,0,1,0,4.13,4.13,4.13,4.13,0,0,0-4.13-4.13Z" style="fill:#00babc"/><path d="M53.28,88.18a.16.16,0,0,1-.08-.08l-2.45-7.25a.15.15,0,0,0-.2-.07.16.16,0,0,0-.07.07L48,88.1a.14.14,0,0,1-.09.08L40.7,90.63a.15.15,0,0,0-.1.17.14.14,0,0,0,.1.1l7.24,2.67a.2.2,0,0,1,.09.09l2.45,7a.15.15,0,0,0,.2.07.16.16,0,0,0,.07-.07l2.45-7.25a.16.16,0,0,1,.08-.08l7.29-2.43a.15.15,0,0,0,.1-.17.14.14,0,0,0-.1-.1Z" style="fill:#00babc"/><path d="M68.42,45.3a116,116,0,0,1,46.93-11h.07a1.87,1.87,0,0,0-.22-3.73A118.53,118.53,0,0,0,67.57,43.63a1,1,0,0,0-.41,1.23.93.93,0,0,0,1.24.45Z" style="fill:#00babc"/><path d="M187.8,83a4.49,4.49,0,1,0,.31-9,4.29,4.29,0,0,0-1.84.32,102.2,102.2,0,0,0-9.72-7.5l-.13-.07-.18-.1-.19-.06h-.92l-17.83,3a89.53,89.53,0,0,0-36-8.16,1.92,1.92,0,0,0-.06,3.84h0a82.85,82.85,0,0,1,9,.61,85.18,85.18,0,0,1,25.82,7.37,1.68,1.68,0,0,0,.47.22,84.34,84.34,0,0,1,26.81,20,4.32,4.32,0,0,0-.4,1.7,4.49,4.49,0,1,0,4.58-4.41,4.38,4.38,0,0,0-1.3.17A88.35,88.35,0,0,0,163.2,72.46l11.79-2a96.93,96.93,0,0,1,8.66,6.73,4.7,4.7,0,0,0-.2,1.12A4.5,4.5,0,0,0,187.8,83Z" style="fill:#00babc"/><path d="M156.94,84.1a4.51,4.51,0,0,0-2.45.65,73.37,73.37,0,0,0-55.31-5.92,72.34,72.34,0,0,0-18.37,8.22,1,1,0,0,0,1,1.7,70.21,70.21,0,0,1,70.55-.88,3.83,3.83,0,0,0-.07.58,4.48,4.48,0,1,0,4.61-4.35Z" style="fill:#00babc"/><path d="M106.18,50.06c-2.31.48-4.6,1-6.87,1.63S94.8,53,92.58,53.79s-4.4,1.64-6.56,2.56a1,1,0,0,0,.73,1.77h0q3.23-1.24,6.51-2.28c2.2-.68,4.41-1.29,6.65-1.83s4.48-1,6.74-1.36,4.54-.66,6.82-.89a102.9,102.9,0,0,1,13.71-.38q4.84.19,9.63.86a4.48,4.48,0,1,0,.5-3.66c-3.34-.35-6.7-.53-10-.55a104.16,104.16,0,0,0-14.12.88C110.81,49.22,108.48,49.57,106.18,50.06Z" style="fill:#00babc"/><path d="M136.39,34.83a116.92,116.92,0,0,1,17.26,3.74L157,51.19v.05a1.89,1.89,0,0,0,.23.5h0a1.85,1.85,0,0,0,.36.38l.08.07a2.38,2.38,0,0,0,.41.23c2.6,1,5.17,2.14,7.69,3.37v.05a4.48,4.48,0,1,0,4.68-4.27h0a4.4,4.4,0,0,0-2.91,1c-2.35-1.15-4.74-2.2-7.15-3.17L157.86,40a117.64,117.64,0,0,1,26.42,12.85,3.09,3.09,0,0,0-.08.6,4.48,4.48,0,1,0,4.61-4.35,4.36,4.36,0,0,0-2.46.66,121.85,121.85,0,0,0-49.44-18.6,1.86,1.86,0,1,0-.52,3.69Z" style="fill:#00babc"/><path d="M42.68,75.76l2.38-9a.22.22,0,0,1,.16-.16l9-2.37a.23.23,0,0,0,.15-.29.23.23,0,0,0-.15-.15l-9-2.38a.22.22,0,0,1-.16-.16l-2.38-9a.23.23,0,0,0-.29-.15.23.23,0,0,0-.15.15l-2.37,9a.22.22,0,0,1-.16.16l-9,2.38a.23.23,0,0,0-.15.29.23.23,0,0,0,.15.15l9,2.37a.22.22,0,0,1,.16.16l2.37,9a.23.23,0,0,0,.29.15A.23.23,0,0,0,42.68,75.76Z" style="fill:#00babc"/></g><line id="Slash" x1="285.19" y1="30.36" x2="285.19" y2="139.08" style="fill:none;stroke:#00babc;stroke-miterlimit:10;stroke-width:4px"/><path d="M379.24,91.19c0-31.7,19.84-50.5,44.28-50.5a38.44,38.44,0,0,1,28,12.29l-9.18,11.11c-5-5-10.81-8.45-18.37-8.45-15.84,0-27.1,13.33-27.1,35.1,0,22.07,10.37,35.39,26.66,35.39,8.59,0,15.25-4,20.73-9.92L453.43,127c-7.85,9-18.06,14.07-30.5,14.07C398.49,141.09,379.24,123.32,379.24,91.19Z" style="fill:#f5f5f5"/><path d="M463.35,103c0-24.28,16.44-38.2,34.51-38.2s34.65,13.92,34.65,38.2-16.44,38.06-34.65,38.06S463.35,127.17,463.35,103ZM515,103c0-14.66-6.51-24.28-17.17-24.28s-17,9.62-17,24.28,6.37,24.14,17,24.14S515,117.54,515,103Z" style="fill:#f5f5f5"/><path d="M549.39,66.6h14.06l1.19,9.92h.59c6.07-6.51,13.18-11.69,22.21-11.69,10.67,0,16.74,4.88,20.14,13,7-7.41,14.22-13,23.4-13,15.4,0,22.51,10.51,22.51,28.87v45.61H636.31V95.92c0-12-3.55-16.43-11.1-16.43-4.6,0-9.63,3-15.26,9v50.79h-17V95.92c0-12-3.55-16.43-11.25-16.43-4.44,0-9.63,3-15.26,9v50.79h-17Z" style="fill:#f5f5f5"/><path d="M674.22,66.6h14.06l1.19,9.92h.59c6.07-6.51,13.18-11.69,22.21-11.69,10.67,0,16.74,4.88,20.14,13,7-7.41,14.22-13,23.4-13,15.4,0,22.51,10.51,22.51,28.87v45.61H761.14V95.92c0-12-3.55-16.43-11.1-16.43-4.59,0-9.63,3-15.26,9v50.79h-17V95.92c0-12-3.55-16.43-11.25-16.43-4.44,0-9.63,3-15.25,9v50.79h-17Z" style="fill:#f5f5f5"/><path d="M798.31,112.21V66.6h17V110c0,12,3.4,16.44,11.25,16.44,6.37,0,10.66-3,16.14-10.07V66.6h17v72.71H845.84l-1.33-10.66h-.44c-6.37,7.55-13.48,12.44-23.4,12.44C805.12,141.09,798.31,130.58,798.31,112.21Z" style="fill:#f5f5f5"/><path d="M881.38,66.6h14.07l1.18,9.78h.6c6.51-6.37,13.92-11.55,23.84-11.55,15.55,0,22.36,10.51,22.36,28.87v45.61h-17V95.92c0-12-3.41-16.43-11.4-16.43-6.37,0-10.52,3.11-16.59,9v50.79h-17Z" style="fill:#f5f5f5"/><path d="M962.38,44.24c0-5.77,4.44-9.77,10.52-9.77s10.51,4,10.51,9.77S979,53.87,972.9,53.87,962.38,49.87,962.38,44.24Zm1.93,22.36h17v72.71h-17Z" style="fill:#f5f5f5"/><path d="M1005.62,114.73V80.08H995.26V67.34l11.25-.74,2.07-19.84h14.22V66.6h18.51V80.08H1022.8v34.65c0,8.59,3.26,12.74,10.22,12.74a20.82,20.82,0,0,0,7.55-1.63l3,12.58a46.23,46.23,0,0,1-14.81,2.67C1011.84,141.09,1005.62,130.43,1005.62,114.73Z" style="fill:#f5f5f5"/><path d="M1052,167.75l3.11-13.33a18,18,0,0,0,5.18,1c7.7,0,12.14-5.18,14.52-12.43l1.33-4.6L1047.53,66.6h17.32l12.59,35.69c2.07,6.37,4.15,13.63,6.37,20.44h.59c1.78-6.67,3.7-13.92,5.48-20.44l11-35.69h16.44l-26.36,76c-6.08,16.44-13.63,26.66-29.47,26.66A28.47,28.47,0,0,1,1052,167.75Z" style="fill:#f5f5f5"/><path d="M1193.24,43.8A20.15,20.15,0,0,0,1185.1,42c-6.82,0-10.07,4.74-10.07,13.92v11.4h15.25v9.92H1175v62.05h-12.15v-62h-9.77V68.08l9.77-.74V55.94c0-14.66,6.67-23.84,21-23.84a32.41,32.41,0,0,1,12,2.37Z" style="fill:#f5f5f5"/><path d="M1197.24,103.48c0-24.14,15.69-37.91,33.32-37.91s33.32,13.77,33.32,37.91c0,23.84-15.7,37.61-33.32,37.61S1197.24,127.32,1197.24,103.48Zm54,0c0-16.59-8.3-27.84-20.73-27.84s-20.74,11.25-20.74,27.84c0,16.43,8.44,27.54,20.74,27.54S1251.29,119.91,1251.29,103.48Z" style="fill:#f5f5f5"/><path d="M1282.83,67.34h10.07l1,13h.45c4.88-9,12.29-14.8,20.43-14.8a17.83,17.83,0,0,1,7.7,1.48l-2.37,10.66a20.08,20.08,0,0,0-7-1.19c-6.07,0-13.32,4.45-18.21,16.59v46.2h-12.14Z" style="fill:#f5f5f5"/><path d="M1333.17,113V67.34h12.29v44c0,13.48,4,19.26,13.48,19.26,7.4,0,12.59-3.71,19.4-12.15V67.34h12.14v72h-10.07l-1-11.25h-.45c-6.66,7.85-13.77,13-23.69,13C1340,141.09,1333.17,131.32,1333.17,113Z" style="fill:#f5f5f5"/><path d="M1414.76,67.34h10.07l1,10.37h.44c6.22-6.81,13.78-12.14,22.37-12.14,11,0,16.88,5.18,19.84,13.77,7.55-8.15,15-13.77,23.69-13.77,14.81,0,21.92,9.77,21.92,28.13v45.61H1502v-44c0-13.47-4.3-19.25-13.33-19.25-5.63,0-11.4,3.7-18.07,11.11v52.12h-12.14v-44c0-13.47-4.3-19.25-13.48-19.25-5.33,0-11.4,3.7-18.06,11.11v52.12h-12.15Z" style="fill:#f5f5f5"/></svg>