<svg id="Logo" xmlns="http://www.w3.org/2000/svg" viewBox="0 0 724.46 170.14"><g id="Imagotype"><path d="M47.47,108.46c7.4,0,12.54,2.63,12.54,10.71a10.7,10.7,0,0,1-4.5,8.58L61,139.06H53.13c-1.49-3.15-2.89-6.29-4.42-9.44H43.86v9.44h-7v-30.6Zm-3.61,15.21h4.21a4.47,4.47,0,0,0,4.76-4.16q0-.3,0-.6c0-2.08-1.15-4.5-4.76-4.5H43.86Z" style="fill:#f5f5f5"/><path d="M71.23,127.37V108.46h7V128a5.52,5.52,0,0,0,5.36,5.66h.47a5.51,5.51,0,0,0,5.81-5.19c0-.15,0-.31,0-.46V108.46h7v18.87c0,7.82-3.91,12.24-12.79,12.24S71.23,135.15,71.23,127.37Z" style="fill:#f5f5f5"/><path d="M132.09,116.57a7.44,7.44,0,0,1-3.87,6.55v.17a6.69,6.69,0,0,1,5,7c0,5.27-4.08,8.8-10.5,8.8H109.44V108.46h12.92C129.12,108.46,132.09,112.32,132.09,116.57Zm-11,4.25c2.13,0,4.12-.8,4.12-3.44,0-2-1.57-2.93-3.91-2.93h-4.8v6.37Zm5,9c0-2.34-1.62-3.06-4-3.06h-5.64v6.42h5.82c2.72-.07,3.79-1.43,3.79-3.43Z" style="fill:#f5f5f5"/><path d="M144.57,108.46h7v30.6h-7Z" style="fill:#f5f5f5"/><path d="M171.4,120.1v19h-7V108.46h7.53l12.41,19.59V108.46h6.93v30.6h-7.36Z" style="fill:#f5f5f5"/><path d="M65.92,71a4.44,4.44,0,1,0,4.44,4.44h0A4.44,4.44,0,0,0,65.92,71Z" style="fill:#00babc"/><path d="M57.39,54.8a4.3,4.3,0,1,0-4.29-4.31h0a4.29,4.29,0,0,0,4.28,4.3Z" style="fill:#00babc"/><path d="M75.26,56.15a4.13,4.13,0,1,0,4.13,4.13,4.13,4.13,0,0,0-4.13-4.13Z" style="fill:#00babc"/><path d="M53.28,88.18a.16.16,0,0,1-.08-.08l-2.45-7.25a.15.15,0,0,0-.2-.07.16.16,0,0,0-.07.07L48,88.1a.14.14,0,0,1-.09.08L40.7,90.63a.15.15,0,0,0-.1.17.14.14,0,0,0,.1.1l7.24,2.67a.2.2,0,0,1,.09.09l2.45,7a.15.15,0,0,0,.2.07.16.16,0,0,0,.07-.07l2.45-7.25a.16.16,0,0,1,.08-.08l7.29-2.43a.15.15,0,0,0,.1-.17.14.14,0,0,0-.1-.1Z" style="fill:#00babc"/><path d="M68.42,45.3a116,116,0,0,1,46.93-11h.07a1.87,1.87,0,0,0-.22-3.73A118.53,118.53,0,0,0,67.57,43.63a1,1,0,0,0-.41,1.23.93.93,0,0,0,1.24.45Z" style="fill:#00babc"/><path d="M187.8,83a4.49,4.49,0,1,0,.31-9,4.29,4.29,0,0,0-1.84.32,102.2,102.2,0,0,0-9.72-7.5l-.13-.07-.18-.1-.19-.06h-.92l-17.83,3a89.53,89.53,0,0,0-36-8.16,1.92,1.92,0,0,0-.06,3.84h0a82.85,82.85,0,0,1,9,.61,85.18,85.18,0,0,1,25.82,7.37,1.68,1.68,0,0,0,.47.22,84.34,84.34,0,0,1,26.81,20,4.32,4.32,0,0,0-.4,1.7,4.49,4.49,0,1,0,4.58-4.41,4.38,4.38,0,0,0-1.3.17A88.35,88.35,0,0,0,163.2,72.46l11.79-2a96.93,96.93,0,0,1,8.66,6.73,4.7,4.7,0,0,0-.2,1.12A4.5,4.5,0,0,0,187.8,83Z" style="fill:#00babc"/><path d="M156.94,84.1a4.51,4.51,0,0,0-2.45.65,73.37,73.37,0,0,0-55.31-5.92,72.34,72.34,0,0,0-18.37,8.22,1,1,0,0,0,1,1.7,70.21,70.21,0,0,1,70.55-.88,3.83,3.83,0,0,0-.07.58,4.48,4.48,0,1,0,4.61-4.35Z" style="fill:#00babc"/><path d="M106.18,50.06c-2.31.48-4.6,1-6.87,1.63S94.8,53,92.58,53.79s-4.4,1.64-6.56,2.56a1,1,0,0,0,.73,1.77h0q3.23-1.24,6.51-2.28c2.2-.68,4.41-1.29,6.65-1.83s4.48-1,6.74-1.36,4.54-.66,6.82-.89a102.9,102.9,0,0,1,13.71-.38q4.84.19,9.63.86a4.48,4.48,0,1,0,.5-3.66c-3.34-.35-6.7-.53-10-.55a104.16,104.16,0,0,0-14.12.88C110.81,49.22,108.48,49.57,106.18,50.06Z" style="fill:#00babc"/><path d="M136.39,34.83a116.92,116.92,0,0,1,17.26,3.74L157,51.19v.05a1.89,1.89,0,0,0,.23.5h0a1.85,1.85,0,0,0,.36.38l.08.07a2.38,2.38,0,0,0,.41.23c2.6,1,5.17,2.14,7.69,3.37v.05a4.48,4.48,0,1,0,4.68-4.27h0a4.4,4.4,0,0,0-2.91,1c-2.35-1.15-4.74-2.2-7.15-3.17L157.86,40a117.64,117.64,0,0,1,26.42,12.85,3.09,3.09,0,0,0-.08.6,4.48,4.48,0,1,0,4.61-4.35,4.36,4.36,0,0,0-2.46.66,121.85,121.85,0,0,0-49.44-18.6,1.86,1.86,0,1,0-.52,3.69Z" style="fill:#00babc"/><path d="M42.68,75.76l2.38-9a.22.22,0,0,1,.16-.16l9-2.37a.23.23,0,0,0,.15-.29.23.23,0,0,0-.15-.15l-9-2.38a.22.22,0,0,1-.16-.16l-2.38-9a.23.23,0,0,0-.29-.15.23.23,0,0,0-.15.15l-2.37,9a.22.22,0,0,1-.16.16l-9,2.38a.23.23,0,0,0-.15.29.23.23,0,0,0,.15.15l9,2.37a.22.22,0,0,1,.16.16l2.37,9a.23.23,0,0,0,.29.15A.23.23,0,0,0,42.68,75.76Z" style="fill:#00babc"/></g><line id="Slash" x1="285.19" y1="30.36" x2="285.19" y2="139.08" style="fill:none;stroke:#00babc;stroke-miterlimit:10;stroke-width:2.5px"/><path d="M375.12,55.41c0-13.7,8.58-21.82,19.14-21.82a16.59,16.59,0,0,1,12.09,5.31l-4,4.8a10.88,10.88,0,0,0-7.93-3.65c-6.85,0-11.71,5.76-11.71,15.17s4.48,15.29,11.52,15.29a11.93,11.93,0,0,0,9-4.29l4,4.68A16.86,16.86,0,0,1,394,77C383.44,77,375.12,69.3,375.12,55.41Z" style="fill:#f5f5f5"/><path d="M411.47,60.53C411.47,50,418.58,44,426.38,44s15,6,15,16.51S434.26,77,426.38,77,411.47,71,411.47,60.53Zm22.34,0c0-6.34-2.82-10.5-7.43-10.5S419,54.19,419,60.53,421.78,71,426.38,71,433.81,66.8,433.81,60.53Z" style="fill:#f5f5f5"/><path d="M448.66,44.78h6.08l.51,4.29h.25c2.63-2.81,5.7-5,9.6-5,4.61,0,7.23,2.11,8.71,5.63,3-3.2,6.14-5.63,10.11-5.63,6.65,0,9.73,4.54,9.73,12.48V76.21h-7.43V57.46c0-5.19-1.53-7.11-4.8-7.11-2,0-4.16,1.28-6.59,3.91V76.21h-7.36V57.46c0-5.19-1.53-7.11-4.86-7.11-1.92,0-4.16,1.28-6.59,3.91V76.21h-7.36Z" style="fill:#f5f5f5"/><path d="M502.61,44.78h6.08l.51,4.29h.26c2.62-2.81,5.69-5,9.59-5,4.61,0,7.24,2.11,8.71,5.63,3-3.2,6.14-5.63,10.11-5.63,6.66,0,9.73,4.54,9.73,12.48V76.21h-7.43V57.46c0-5.19-1.53-7.11-4.8-7.11-2,0-4.16,1.28-6.59,3.91V76.21h-7.36V57.46c0-5.19-1.53-7.11-4.86-7.11-1.92,0-4.16,1.28-6.59,3.91V76.21h-7.36Z" style="fill:#f5f5f5"/><path d="M556.24,64.5V44.78h7.36V63.54c0,5.18,1.47,7.1,4.86,7.1,2.75,0,4.61-1.28,7-4.35V44.78h7.36V76.21h-6l-.57-4.61H576C573.26,74.86,570.19,77,565.9,77,559.18,77,556.24,72.43,556.24,64.5Z" style="fill:#f5f5f5"/><path d="M592.14,44.78h6.08l.51,4.23H599c2.82-2.75,6-5,10.3-5C616,44,619,48.56,619,56.5V76.21H611.6V57.46c0-5.19-1.47-7.11-4.93-7.11-2.75,0-4.54,1.35-7.17,3.91V76.21h-7.36Z" style="fill:#f5f5f5"/><path d="M627.15,35.12a4.56,4.56,0,0,1,9.09,0c0,2.43-1.92,4.16-4.55,4.16A4.21,4.21,0,0,1,627.15,35.12Zm.83,9.66h7.36V76.21H628Z" style="fill:#f5f5f5"/><path d="M645.84,65.58v-15h-4.48v-5.5l4.86-.33.9-8.57h6.14v8.57h8v5.83h-8v15c0,3.72,1.41,5.51,4.42,5.51a8.83,8.83,0,0,0,3.26-.71l1.28,5.44a20,20,0,0,1-6.4,1.15C648.53,77,645.84,72.37,645.84,65.58Z" style="fill:#f5f5f5"/><path d="M665.87,88.49l1.34-5.76a7.54,7.54,0,0,0,2.24.45c3.33,0,5.25-2.24,6.28-5.37l.57-2L664,44.78h7.49l5.44,15.43c.89,2.75,1.79,5.89,2.75,8.83h.26c.76-2.88,1.6-6,2.36-8.83L687,44.78h7.1L682.7,77.61c-2.62,7.11-5.89,11.52-12.73,11.52A12.08,12.08,0,0,1,665.87,88.49Z" style="fill:#f5f5f5"/><path d="M376.67,96.94h24.19v4.48H382v14.2h16v4.48H382v18.82h-5.31Z" style="fill:#f5f5f5"/><path d="M404.57,123.43c0-10.43,6.79-16.38,14.4-16.38s14.4,6,14.4,16.38-6.78,16.26-14.4,16.26S404.57,133.73,404.57,123.43Zm23.36,0c0-7.17-3.58-12-9-12s-9,4.86-9,12,3.65,11.9,9,11.9S427.93,130.53,427.93,123.43Z" style="fill:#f5f5f5"/><path d="M441.57,107.82h4.35l.44,5.63h.2c2.11-3.91,5.31-6.4,8.83-6.4a7.74,7.74,0,0,1,3.33.64l-1,4.61a8.7,8.7,0,0,0-3-.52c-2.62,0-5.76,1.92-7.87,7.17v20h-5.24Z" style="fill:#f5f5f5"/><path d="M463.32,127.53V107.82h5.32v19c0,5.83,1.72,8.32,5.82,8.32,3.2,0,5.44-1.6,8.38-5.25V107.82h5.25v31.1h-4.35l-.45-4.87h-.19c-2.88,3.4-6,5.64-10.24,5.64C466.27,139.69,463.32,135.46,463.32,127.53Z" style="fill:#f5f5f5"/><path d="M498.59,107.82h4.35l.45,4.48h.19c2.69-3,5.95-5.25,9.66-5.25,4.74,0,7.3,2.24,8.58,6,3.26-3.52,6.46-6,10.24-6,6.4,0,9.47,4.22,9.47,12.16v19.71h-5.25v-19c0-5.82-1.86-8.32-5.76-8.32-2.43,0-4.93,1.6-7.81,4.8v22.53h-5.24v-19c0-5.82-1.86-8.32-5.83-8.32-2.3,0-4.93,1.6-7.81,4.8v22.53h-5.24Z" style="fill:#f5f5f5"/></svg>