<svg id="Logo" xmlns="http://www.w3.org/2000/svg" viewBox="0 0 1460.55 240"><line id="Slash" x1="452.59" y1="1.89" x2="452.64" y2="237.8" style="fill:none;stroke:#00babc;stroke-miterlimit:10;stroke-width:4px"/><path d="M523.07,119.87C523.07,94.19,539.15,79,559,79a31.19,31.19,0,0,1,22.68,10l-7.44,9c-4.08-4.08-8.76-6.84-14.88-6.84-12.84,0-22,10.8-22,28.44,0,17.88,8.4,28.68,21.6,28.68,7,0,12.36-3.24,16.8-8l7.44,8.76a31.64,31.64,0,0,1-24.72,11.4C538.67,160.31,523.07,145.91,523.07,119.87Z" style="fill:#f5f5f5"/><path d="M591.23,129.47c0-19.68,13.32-31,28-31s28.08,11.28,28.08,31S634,160.31,619.19,160.31,591.23,149,591.23,129.47Zm41.88,0c0-11.88-5.28-19.68-13.92-19.68s-13.8,7.8-13.8,19.68S610.55,149,619.19,149,633.11,141.23,633.11,129.47Z" style="fill:#f5f5f5"/><path d="M661,100h11.4l1,8h.48c4.92-5.28,10.68-9.48,18-9.48,8.64,0,13.56,4,16.32,10.56,5.64-6,11.52-10.56,19-10.56,12.48,0,18.24,8.52,18.24,23.4v37H731.39V123.71c0-9.72-2.88-13.32-9-13.32-3.72,0-7.8,2.4-12.36,7.32v41.16h-13.8V123.71c0-9.72-2.88-13.32-9.12-13.32-3.6,0-7.8,2.4-12.36,7.32v41.16H661Z" style="fill:#f5f5f5"/><path d="M762.11,100h11.4l1,8H775c4.92-5.28,10.68-9.48,18-9.48,8.64,0,13.56,4,16.32,10.56,5.64-6,11.52-10.56,19-10.56,12.48,0,18.24,8.52,18.24,23.4v37H832.55V123.71c0-9.72-2.88-13.32-9-13.32-3.72,0-7.8,2.4-12.36,7.32v41.16h-13.8V123.71c0-9.72-2.88-13.32-9.12-13.32-3.6,0-7.8,2.4-12.36,7.32v41.16h-13.8Z" style="fill:#f5f5f5"/><path d="M862.67,136.91V100h13.8v35.16c0,9.72,2.76,13.32,9.12,13.32,5.16,0,8.64-2.4,13.08-8.16V100h13.8v58.92H901.19l-1.08-8.64h-.36c-5.16,6.12-10.92,10.08-19,10.08C868.19,160.31,862.67,151.79,862.67,136.91Z" style="fill:#f5f5f5"/><path d="M930,100h11.4l1,7.92h.48c5.28-5.16,11.28-9.36,19.32-9.36,12.6,0,18.12,8.52,18.12,23.4v37h-13.8V123.71c0-9.72-2.76-13.32-9.24-13.32-5.16,0-8.52,2.52-13.44,7.32v41.16H930Z" style="fill:#f5f5f5"/><path d="M995.63,81.84c0-4.68,3.6-7.92,8.52-7.92s8.52,3.24,8.52,7.92-3.6,7.79-8.52,7.79S995.63,86.4,995.63,81.84ZM997.19,100H1011v58.92h-13.8Z" style="fill:#f5f5f5"/><path d="M1030.67,139V110.87h-8.4V100.55l9.12-.6,1.68-16.07h11.52V100h15v10.92h-15V139c0,7,2.64,10.32,8.28,10.32A16.94,16.94,0,0,0,1059,148l2.4,10.2a37.63,37.63,0,0,1-12,2.16C1035.71,160.31,1030.67,151.67,1030.67,139Z" style="fill:#f5f5f5"/><path d="M1068.23,181.91l2.52-10.8a14.48,14.48,0,0,0,4.2.84c6.24,0,9.84-4.2,11.76-10.08l1.07-3.72L1064.63,100h14l10.19,28.92c1.69,5.16,3.37,11,5.17,16.56h.47c1.44-5.4,3-11.28,4.44-16.56l8.88-28.92h13.32l-21.36,61.56c-4.92,13.32-11,21.6-23.87,21.6A22.91,22.91,0,0,1,1068.23,181.91Z" style="fill:#f5f5f5"/><path d="M1182.7,81.48a16.39,16.39,0,0,0-6.6-1.44c-5.52,0-8.16,3.84-8.16,11.28v9.23h12.36v8h-12.36v50.28h-9.84V108.59h-7.92v-7.44l7.92-.6V91.32c0-11.88,5.4-19.32,17-19.32a26.42,26.42,0,0,1,9.72,1.92Z" style="fill:#f5f5f5"/><path d="M1185.94,129.83c0-19.56,12.72-30.72,27-30.72s27,11.16,27,30.72c0,19.32-12.72,30.48-27,30.48S1185.94,149.15,1185.94,129.83Zm43.8,0c0-13.44-6.72-22.56-16.8-22.56s-16.8,9.12-16.8,22.56,6.84,22.32,16.8,22.32S1229.74,143.15,1229.74,129.83Z" style="fill:#f5f5f5"/><path d="M1255.3,100.55h8.16l.84,10.56h.36c4-7.32,10-12,16.56-12a14.49,14.49,0,0,1,6.24,1.2l-1.92,8.64a16.32,16.32,0,0,0-5.64-1c-4.92,0-10.8,3.6-14.76,13.44v37.44h-9.84Z" style="fill:#f5f5f5"/><path d="M1296.1,137.51v-37h10v35.64c0,10.92,3.24,15.6,10.92,15.6,6,0,10.2-3,15.72-9.84v-41.4h9.84v58.32h-8.16l-.84-9.12h-.36c-5.4,6.36-11.16,10.56-19.2,10.56C1301.62,160.31,1296.1,152.39,1296.1,137.51Z" style="fill:#f5f5f5"/><path d="M1362.22,100.55h8.16l.84,8.4h.36c5-5.52,11.16-9.84,18.12-9.84,8.88,0,13.68,4.2,16.08,11.16,6.12-6.6,12.12-11.16,19.2-11.16,12,0,17.76,7.92,17.76,22.8v37h-9.84V123.23c0-10.92-3.48-15.6-10.8-15.6-4.56,0-9.24,3-14.64,9v42.24h-9.84V123.23c0-10.92-3.48-15.6-10.92-15.6-4.32,0-9.24,3-14.64,9v42.24h-9.84Z" style="fill:#f5f5f5"/><path d="M50.79,122A8.25,8.25,0,1,0,59,130.24h0A8.31,8.31,0,0,0,50.79,122Z" style="fill:#00babc"/><path d="M52.06,72.28a5.93,5.93,0,1,0-5.92-5.93,5.9,5.9,0,0,0,5.92,5.93Z" style="fill:#00babc"/><path d="M81.16,85.55a9.08,9.08,0,1,0-9.08,9.07h0A9.06,9.06,0,0,0,81.16,85.55Z" style="fill:#00babc"/><path d="M45.39,101.37,28.14,96.8c-.15-.08-.3-.15-.3-.3L23.27,79.25a.44.44,0,0,0-.53-.3c-.15.08-.3.15-.3.3L17.87,96.5c-.08.15-.15.3-.3.3L.32,101.37a.42.42,0,0,0-.3.53c.07.15.15.3.3.3l17.25,4.57c.15.08.3.15.3.3l4.57,17.25a.44.44,0,0,0,.53.3c.15-.08.3-.15.3-.3l4.57-17.25c.07-.15.15-.3.3-.3l17.25-4.57a.44.44,0,0,0,.3-.53A.32.32,0,0,0,45.39,101.37Z" style="fill:#00babc"/><path d="M108.68,125.82l-11.33-4.35c-.07,0-.07-.08-.15-.15L92.85,110c-.07-.15-.15-.15-.3-.15s-.07.07-.15.15l-4.34,11.32c0,.07-.08.07-.15.15l-11.33,4.35a.29.29,0,0,0-.15.3c0,.07.08.07.15.15l11.33,4.35c.07,0,.07.07.15.15l4.34,11.32c.08.15.15.15.3.15s.08-.08.15-.15l4.35-11.32c0-.08.08-.08.15-.15l11.33-4.35c.15,0,.22-.15.15-.3A.16.16,0,0,0,108.68,125.82Z" style="fill:#00babc"/><path d="M85.51,42.13a257.36,257.36,0,0,1,54.81-23.84A250.74,250.74,0,0,1,198.89,7.86H199a3.09,3.09,0,0,0-.6-6.15A258.85,258.85,0,0,0,84.91,41.23a.51.51,0,0,0-.15.75.56.56,0,0,0,.75.15Z" style="fill:#00babc"/><path d="M237.36,7.64a248.62,248.62,0,0,1,62.69,12.89l10.64,26.78,1.13.52c5.85,2.55,11.62,5.32,17.32,8.4a4.82,4.82,0,0,0,0,1.42A7.51,7.51,0,1,0,332.07,51c-5.48-2.92-11.1-5.62-16.73-8.17l-7.8-19.5A256,256,0,0,1,356.44,48a7.55,7.55,0,1,0,3.3-5,264.27,264.27,0,0,0-56.1-27.45,4.67,4.67,0,0,0-.89-.3,257,257,0,0,0-64.94-13.5,3,3,0,0,0-3.23,2.78,3.11,3.11,0,0,0,2.78,3.15Z" style="fill:#00babc"/><path d="M167.32,64.78a3.05,3.05,0,0,0,2-3.9,3.15,3.15,0,0,0-3.68-2,215.94,215.94,0,0,0-46.27,19.2,226.73,226.73,0,0,0-40.56,29,.57.57,0,0,0-.08.75.58.58,0,0,0,.75.07A222.91,222.91,0,0,1,120.9,81.27,214.54,214.54,0,0,1,167,64.85Z" style="fill:#00babc"/><path d="M172.19,42.81a1.9,1.9,0,0,0,2.25,1.5,220.66,220.66,0,0,1,54.89-3.68,227.14,227.14,0,0,1,47.47,8,7.43,7.43,0,1,0,1.65-5.78,228.17,228.17,0,0,0-48.82-7.27,222.88,222.88,0,0,0-55.94,4.87A2,2,0,0,0,172.19,42.81Z" style="fill:#00babc"/><path d="M261.2,82.62a7.6,7.6,0,0,0-5.92,2.93,175.47,175.47,0,0,0-22.65-2.85,187.52,187.52,0,0,0-58.49,5.47,200.65,200.65,0,0,0-27.82,9.45,2,2,0,0,0-1,2.55,2,2,0,0,0,2.55,1h0a187.51,187.51,0,0,1,27.37-8.7,184.45,184.45,0,0,1,57-4.2,175.11,175.11,0,0,1,21.67,3.15,7.37,7.37,0,0,0,14.48-2.77,7.18,7.18,0,0,0-7.13-6.08Z" style="fill:#00babc"/><path d="M377.66,82.77a7.5,7.5,0,1,0-7.5-7.49A7.52,7.52,0,0,0,377.66,82.77Z" style="fill:#00babc"/><path d="M377.73,129.34a8.31,8.31,0,0,0-2.4.38c-4.12-4.5-8.47-8.78-12.89-12.9a222.93,222.93,0,0,0-18.9-15.6c-2.55-1.87-5.1-3.67-7.73-5.4l14.93-3.15a235.37,235.37,0,0,1,19.94,16.73,8.55,8.55,0,0,0-.45,2.77,7.5,7.5,0,1,0,7.35-7.65h0a7.12,7.12,0,0,0-2.7.6,237.46,237.46,0,0,0-21.59-18l-1.13-.82-23.47,5A208.21,208.21,0,0,0,278.15,68.6a3,3,0,0,0-1.73,5.78A206.4,206.4,0,0,1,340,106.17a210.55,210.55,0,0,1,18.45,15.22c4.28,4,8.47,8.1,12.45,12.45a7.5,7.5,0,1,0,10-3.6,6.68,6.68,0,0,0-3.15-.9Z" style="fill:#00babc"/><polygon points="18.47 189.26 17.34 189.26 9.32 162.19 0.47 162.19 12.09 198.41 23.27 198.41 34.81 162.19 25.96 162.19 18.47 189.26" style="fill:#f5f5f5"/><polygon points="41.56 198.41 66.83 198.41 66.83 191.36 49.89 191.36 49.89 183.63 64.36 183.63 64.36 176.66 49.89 176.66 49.89 169.24 66.98 169.24 66.98 162.19 41.56 162.19 41.56 198.41" style="fill:#f5f5f5"/><path d="M103,174.86c0-9.52-6.08-12.67-14.85-12.67H75.53v36.22h8.33V187.23h5.69c1.8,3.75,3.45,7.43,5.25,11.18h9.3l-6.45-13.35A12.66,12.66,0,0,0,103,174.86Zm-14.1,5.32H83.93V169.24h4.95c4.27,0,5.62,2.84,5.62,5.32s-1.35,5.62-5.62,5.62Z" style="fill:#f5f5f5"/><path d="M121.65,162.11l-12,36.22h8.63l2.24-6.9H134l2.18,6.9h8.7l-12-36.22Zm.52,22.12,4.73-15.14h.37l4.65,15.14Z" style="fill:#f5f5f5"/><path d="M171.59,180c0-8.32,3.6-11.39,10.27-11.39a32,32,0,0,1,8.4,1.57v-7.42a37.11,37.11,0,0,0-10-1.28c-10.87,0-17.1,7.13-17.1,18.67,0,12,5.7,18.75,17.18,18.75a30.11,30.11,0,0,0,10-1.72v-7.28a21.67,21.67,0,0,1-8.93,1.95C176.32,192,171.59,189.18,171.59,180Z" style="fill:#f5f5f5"/><rect x="198.66" y="192.78" width="4.87" height="5.62" style="fill:#f5f5f5"/><path d="M248.68,174.86c0-9.52-6.08-12.67-14.85-12.67H221.31v36.22h8.25V187.23h5.7c1.8,3.75,3.45,7.43,5.25,11.18h9.29l-6.52-13.35A12.54,12.54,0,0,0,248.68,174.86Zm-14.1,5.32h-5V169.24h5c4.28,0,5.63,2.84,5.63,5.32S238.86,180.18,234.58,180.18Z" style="fill:#f5f5f5"/><path d="M278.75,185.28c0,4.2-3.15,6.68-6.9,6.68s-6.9-2.48-6.9-6.68V162.19H256.7v22.34c0,9.23,4.65,14.4,15.15,14.4S287,193.68,287,184.46V162.11h-8.25Z" style="fill:#f5f5f5"/><path d="M318.94,179.66v-.23a8.77,8.77,0,0,0,4.58-7.72c0-5-3.53-9.52-11.48-9.52H296.75v36.22h15.67c7.57,0,12.45-4.2,12.45-10.43C324.87,184.38,323.52,181.23,318.94,179.66ZM305,169.24h5.7c2.78,0,4.65,1.12,4.65,3.44,0,3.15-2.4,4-4.87,4h-5.4v-7.49Zm6.9,22.12H305v-7.58h6.6c2.85,0,4.73.83,4.73,3.6C316.39,189.78,315.12,191.36,311.89,191.36Z" style="fill:#f5f5f5"/><rect x="333.04" y="162.19" width="8.32" height="36.22" style="fill:#f5f5f5"/><polygon points="374.81 162.19 374.81 185.36 360.11 162.19 351.19 162.19 351.19 198.41 359.51 198.41 359.51 175.98 374.28 198.41 382.98 198.41 382.98 162.19 374.81 162.19" style="fill:#f5f5f5"/><path d="M17.19,211.45c8.1,0,11.85,5,11.85,13.43S25.29,238.3,17.19,238.3s-11.85-5-11.85-13.5S9.17,211.45,17.19,211.45Zm.08,3.9c-4.73,0-7.2,3-7.2,9.53s2.47,9.52,7.12,9.52,7.2-3,7.2-9.52-2.47-9.53-7.12-9.53Z" style="fill:#058b8c"/><path d="M64.66,218.5a6.71,6.71,0,0,1-3.6,6,5.87,5.87,0,0,1,4.57,6.08c0,4.27-3.3,7.27-8.47,7.27H46.36v-26H56.71C62.11,211.83,64.66,215.05,64.66,218.5ZM56,222.85a3.93,3.93,0,0,0,4.12-3.75V219c0-2-1.5-3.3-4-3.3h-5.1v7.12Zm4.95,7.35c0-2.32-1.73-3.45-4.35-3.45h-5.7V234h5.93C59.63,234,60.91,232.3,60.91,230.2Z" style="fill:#058b8c"/><path d="M94.58,230.2c0-3-2.93-3.37-6-3.75-3.52-.45-7.27-1.72-7.27-7.42,0-6.3,5.1-7.65,10-7.65a63.39,63.39,0,0,1,6.67.52v4a50.59,50.59,0,0,0-6.6-.6c-3.59,0-5.39,1.13-5.39,3.6,0,2.7,2.4,3.15,5.17,3.53,3.82.6,8.1,1.2,8.1,7.57,0,5.77-4,8.25-9.9,8.25a38.84,38.84,0,0,1-7.72-.75v-4.13a39.28,39.28,0,0,0,7.34.9C92.63,234.32,94.58,233,94.58,230.2Z" style="fill:#058b8c"/><path d="M133.5,211.83v3.9H120.6v7.05h11.17v3.9H120.6v7.19h12.82v3.9H116v-26Z" style="fill:#058b8c"/><path d="M158.92,211.83c6,0,9.82,2.7,9.82,8.77a8.79,8.79,0,0,1-4,7.35l5,9.9h-5.1c-1.42-2.85-2.85-5.77-4.27-8.7H155v8.62h-4.58v-26Zm-4,13.42h4.43c3.37,0,4.72-2.55,4.72-4.87a4.48,4.48,0,0,0-4.42-4.65h-4.73Z" style="fill:#058b8c"/><path d="M198.44,237.85h-6.38l-8.7-26h4.95l6.75,21h.68l6.45-21h4.95Z" style="fill:#058b8c"/><path d="M227.31,211.83h6.3l8.92,26.09h-4.8l-1.8-5.39H225.06l-1.8,5.47h-4.8ZM226,228.4h8.7l-4.12-12.67h-.38Z" style="fill:#058b8c"/><path d="M275.3,215.8h-8.62v22.12H262.1V215.8h-8.62v-3.9h21.74Z" style="fill:#058b8c"/><path d="M301.77,211.45c8.1,0,11.85,5,11.85,13.43s-3.75,13.42-11.85,13.42-11.85-5-11.85-13.42S293.67,211.45,301.77,211.45Zm0,3.9c-4.72,0-7.2,3-7.2,9.53s2.48,9.52,7.13,9.52,7.19-3,7.19-9.52-2.47-9.53-7.12-9.53Z" style="fill:#058b8c"/><path d="M339.41,211.83c6,0,9.83,2.7,9.83,8.77a8.78,8.78,0,0,1-4,7.35l5,9.9h-5.1c-1.43-2.85-2.85-5.77-4.28-8.7h-5.47v8.62h-4.57v-26Zm-4,13.42h4.42c3.38,0,4.73-2.55,4.73-4.87a4.5,4.5,0,0,0-4.5-4.65h-4.65Z" style="fill:#058b8c"/><path d="M372.26,237.85V229l-8.92-17.1h5.17l6,12.38h.22l5.85-12.38h5.1c-3,5.7-6,11.4-8.85,17.1v8.85Z" style="fill:#058b8c"/></svg>