<svg id="Logo" xmlns="http://www.w3.org/2000/svg" viewBox="0 0 385.17 240"><path d="M50.78,122A8.25,8.25,0,1,0,59,130.24h0A8.32,8.32,0,0,0,50.78,122Z" style="fill:#00babc"/><path d="M52.06,72.27a5.92,5.92,0,1,0-5.92-5.92,5.88,5.88,0,0,0,5.92,5.92Z" style="fill:#00babc"/><path d="M81.15,85.55a9.07,9.07,0,1,0-9.07,9.07h0A9,9,0,0,0,81.15,85.55Z" style="fill:#00babc"/><path d="M45.39,101.37,28.14,96.79c-.15-.07-.3-.15-.3-.3L23.26,79.25a.41.41,0,0,0-.52-.3c-.15.07-.3.15-.3.3L17.87,96.49c-.08.15-.15.3-.3.3L.32,101.37a.41.41,0,0,0-.3.52c.07.15.15.3.3.3l17.25,4.58c.15.07.3.15.3.3l4.57,17.25a.42.42,0,0,0,.52.29c.15-.07.3-.14.3-.29l4.58-17.25c.07-.15.15-.3.3-.3l17.25-4.58a.43.43,0,0,0,.3-.52A.32.32,0,0,0,45.39,101.37Z" style="fill:#00babc"/><path d="M108.68,125.81l-11.33-4.34c-.07,0-.07-.08-.15-.15L92.85,110c-.07-.15-.15-.15-.3-.15s-.07.08-.15.15l-4.35,11.33c0,.07-.07.07-.15.15l-11.32,4.34a.31.31,0,0,0-.15.3c0,.08.08.08.15.15l11.32,4.35c.08,0,.08.08.15.15l4.35,11.33c.08.15.15.15.3.15s.08-.08.15-.15l4.35-11.33c0-.07.08-.07.15-.15l11.33-4.35c.15,0,.22-.15.15-.3A.17.17,0,0,0,108.68,125.81Z" style="fill:#00babc"/><path d="M85.5,42.13a258.2,258.2,0,0,1,54.82-23.85A250.63,250.63,0,0,1,198.89,7.86H199a3.09,3.09,0,0,0-.6-6.15A259,259,0,0,0,139.2,14.83a262.11,262.11,0,0,0-54.3,26.4.52.52,0,0,0-.15.75.57.57,0,0,0,.75.15Z" style="fill:#00babc"/><path d="M237.35,7.63A248.89,248.89,0,0,1,300,20.53L310.69,47.3l1.13.53c5.85,2.55,11.62,5.32,17.32,8.4a4.23,4.23,0,0,0,0,1.42A7.5,7.5,0,1,0,332.06,51c-5.47-2.93-11.09-5.63-16.72-8.18l-7.8-19.49A255,255,0,0,1,356.43,48a7.53,7.53,0,1,0,8.7-6.15,7.67,7.67,0,0,0-5.4,1.12,264.41,264.41,0,0,0-56.09-27.44,4,4,0,0,0-.9-.3A256.38,256.38,0,0,0,237.8,1.71a3,3,0,0,0-3.22,2.77,3.1,3.1,0,0,0,2.77,3.15Z" style="fill:#00babc"/><path d="M167.32,64.77a3,3,0,0,0,2-3.89,3.15,3.15,0,0,0-3.68-2,215.43,215.43,0,0,0-46.27,19.2A226.68,226.68,0,0,0,78.76,107a.53.53,0,1,0,.67.83A222.91,222.91,0,0,1,120.9,81.27,213.47,213.47,0,0,1,167,64.85Z" style="fill:#00babc"/><path d="M172.19,42.8a1.88,1.88,0,0,0,2.25,1.5,221.13,221.13,0,0,1,54.89-3.67,226.47,226.47,0,0,1,47.47,8,7.45,7.45,0,1,0,1.65-5.77,228.81,228.81,0,0,0-48.82-7.28,222.39,222.39,0,0,0-55.94,4.88A2,2,0,0,0,172.19,42.8Z" style="fill:#00babc"/><path d="M261.2,82.62a7.6,7.6,0,0,0-5.92,2.93,175.47,175.47,0,0,0-22.65-2.85,187.52,187.52,0,0,0-58.49,5.47,200.65,200.65,0,0,0-27.82,9.45,1.95,1.95,0,1,0,1.5,3.6h0a183.87,183.87,0,0,1,84.36-12.9,175.39,175.39,0,0,1,21.67,3.15,7.37,7.37,0,1,0,14.47-2.77,7.17,7.17,0,0,0-7.12-6.08Z" style="fill:#00babc"/><path d="M377.66,82.77a7.5,7.5,0,1,0-7.5-7.5A7.52,7.52,0,0,0,377.66,82.77Z" style="fill:#00babc"/><path d="M377.73,129.34a8.66,8.66,0,0,0-2.4.37c-4.12-4.5-8.47-8.77-12.9-12.89a220.9,220.9,0,0,0-18.89-15.6c-2.55-1.88-5.1-3.68-7.73-5.4l14.93-3.15a235.25,235.25,0,0,1,19.94,16.72,8.61,8.61,0,0,0-.45,2.78,7.5,7.5,0,1,0,7.35-7.65h0a6.94,6.94,0,0,0-2.7.6,235.84,235.84,0,0,0-21.59-18l-1.13-.82-23.47,5A208.21,208.21,0,0,0,278.15,68.6a3,3,0,0,0-1.73,5.77A206.75,206.75,0,0,1,340,106.17a210.55,210.55,0,0,1,18.45,15.22c4.27,4,8.47,8.1,12.45,12.45a7.5,7.5,0,1,0,10-3.6,6.57,6.57,0,0,0-3.15-.9Z" style="fill:#00babc"/><polygon points="18.46 189.25 17.34 189.25 9.32 162.18 0.47 162.18 12.09 198.4 23.26 198.4 34.81 162.18 25.96 162.18 18.46 189.25" style="fill:#f5f5f5"/><polygon points="41.56 198.4 66.83 198.4 66.83 191.35 49.88 191.35 49.88 183.63 64.36 183.63 64.36 176.66 49.88 176.66 49.88 169.23 66.98 169.23 66.98 162.18 41.56 162.18 41.56 198.4" style="fill:#f5f5f5"/><path d="M103,174.86c0-9.53-6.08-12.68-14.85-12.68H75.53V198.4h8.32V187.23h5.7c1.8,3.75,3.45,7.42,5.25,11.17h9.3l-6.45-13.34A12.66,12.66,0,0,0,103,174.86Zm-14.1,5.32H83.93v-11h4.95c4.27,0,5.62,2.85,5.62,5.33s-1.35,5.62-5.62,5.62Z" style="fill:#f5f5f5"/><path d="M121.65,162.11l-12,36.22h8.62l2.25-6.9H134l2.18,6.9h8.69l-12-36.22Zm.52,22.12,4.73-15.15h.37l4.65,15.15Z" style="fill:#f5f5f5"/><path d="M171.59,180c0-8.32,3.6-11.4,10.27-11.4a32,32,0,0,1,8.4,1.58v-7.43a37.1,37.1,0,0,0-10-1.27c-10.87,0-17.1,7.12-17.1,18.67,0,12,5.7,18.75,17.17,18.75a29.88,29.88,0,0,0,10-1.73v-7.27a21.83,21.83,0,0,1-8.93,1.95C176.31,192,171.59,189.18,171.59,180Z" style="fill:#f5f5f5"/><rect x="198.66" y="192.78" width="4.87" height="5.62" style="fill:#f5f5f5"/><path d="M248.68,174.86c0-9.53-6.08-12.68-14.85-12.68H221.31V198.4h8.25V187.23h5.69c1.8,3.75,3.45,7.42,5.25,11.17h9.3l-6.52-13.34A12.54,12.54,0,0,0,248.68,174.86Zm-14.1,5.32h-5v-11h5c4.27,0,5.62,2.85,5.62,5.33S238.85,180.18,234.58,180.18Z" style="fill:#f5f5f5"/><path d="M278.75,185.28c0,4.2-3.15,6.67-6.9,6.67s-6.9-2.47-6.9-6.67v-23.1H256.7v22.35c0,9.22,4.65,14.4,15.15,14.4S287,193.68,287,184.46V162.11h-8.25Z" style="fill:#f5f5f5"/><path d="M318.94,179.66v-.23a8.77,8.77,0,0,0,4.58-7.72c0-5-3.53-9.53-11.48-9.53h-15.3V198.4h15.68c7.57,0,12.45-4.2,12.45-10.42C324.87,184.38,323.52,181.23,318.94,179.66ZM305,169.23h5.7c2.78,0,4.65,1.13,4.65,3.45,0,3.15-2.4,4-4.87,4h-5.4v-7.5Zm6.9,22.12H305v-7.57h6.6c2.85,0,4.73.83,4.73,3.6C316.39,189.78,315.12,191.35,311.89,191.35Z" style="fill:#f5f5f5"/><rect x="333.04" y="162.18" width="8.32" height="36.22" style="fill:#f5f5f5"/><polygon points="374.81 162.18 374.81 185.35 360.11 162.18 351.19 162.18 351.19 198.4 359.51 198.4 359.51 175.98 374.28 198.4 382.98 198.4 382.98 162.18 374.81 162.18" style="fill:#f5f5f5"/><path d="M17.19,211.45c8.1,0,11.85,5,11.85,13.42S25.29,238.3,17.19,238.3s-11.85-5-11.85-13.5S9.17,211.45,17.19,211.45Zm.08,3.9c-4.73,0-7.2,3-7.2,9.52s2.47,9.53,7.12,9.53,7.2-3,7.2-9.53-2.48-9.52-7.12-9.52Z" style="fill:#058b8c"/><path d="M64.66,218.5a6.71,6.71,0,0,1-3.6,6,5.86,5.86,0,0,1,4.57,6.07c0,4.28-3.3,7.28-8.47,7.28H46.36v-26H56.71C62.11,211.83,64.66,215.05,64.66,218.5ZM56,222.85a4,4,0,0,0,4.12-3.75V219c0-2-1.5-3.29-4-3.29h-5.1v7.12Zm4.95,7.35c0-2.33-1.73-3.45-4.35-3.45h-5.7V234h5.92C59.63,234,60.91,232.3,60.91,230.2Z" style="fill:#058b8c"/><path d="M94.58,230.2c0-3-2.93-3.38-6-3.75-3.53-.45-7.28-1.73-7.28-7.43,0-6.29,5.1-7.64,10-7.64a63.39,63.39,0,0,1,6.67.52v4a50.59,50.59,0,0,0-6.6-.6c-3.6,0-5.4,1.12-5.4,3.6,0,2.7,2.4,3.15,5.18,3.52,3.82.6,8.1,1.2,8.1,7.58,0,5.77-4,8.25-9.9,8.25a38.94,38.94,0,0,1-7.73-.75v-4.13a39.39,39.39,0,0,0,7.35.9C92.63,234.32,94.58,233,94.58,230.2Z" style="fill:#058b8c"/><path d="M133.5,211.83v3.9H120.6v7h11.17v3.9H120.6v7.2h12.82v3.9H116v-26Z" style="fill:#058b8c"/><path d="M158.92,211.83c6,0,9.82,2.7,9.82,8.77a8.79,8.79,0,0,1-4,7.35l5,9.9h-5.1c-1.42-2.85-2.85-5.78-4.27-8.7H155v8.62h-4.58v-26Zm-4,13.42h4.43c3.37,0,4.72-2.55,4.72-4.88a4.47,4.47,0,0,0-4.42-4.64h-4.73Z" style="fill:#058b8c"/><path d="M198.44,237.85h-6.38l-8.7-26h4.95l6.75,21h.68l6.45-21h4.94Z" style="fill:#058b8c"/><path d="M227.31,211.83h6.29l8.93,26.09h-4.8l-1.8-5.4H225.06l-1.8,5.48h-4.8ZM226,228.4h8.7l-4.12-12.67h-.38Z" style="fill:#058b8c"/><path d="M275.3,215.8h-8.63v22.12H262.1V215.8h-8.62v-3.9h21.74Z" style="fill:#058b8c"/><path d="M301.77,211.45c8.1,0,11.85,5,11.85,13.42s-3.75,13.43-11.85,13.43-11.85-5-11.85-13.43S293.67,211.45,301.77,211.45Zm0,3.9c-4.73,0-7.2,3-7.2,9.52s2.47,9.53,7.12,9.53,7.2-3,7.2-9.53-2.47-9.52-7.12-9.52Z" style="fill:#058b8c"/><path d="M339.41,211.83c6,0,9.83,2.7,9.83,8.77a8.78,8.78,0,0,1-4,7.35l5,9.9h-5.1c-1.43-2.85-2.85-5.78-4.28-8.7h-5.47v8.62h-4.58v-26Zm-4,13.42h4.42c3.38,0,4.73-2.55,4.73-4.88a4.49,4.49,0,0,0-4.5-4.64h-4.65Z" style="fill:#058b8c"/><path d="M372.26,237.85V229l-8.93-17.1h5.18l6,12.37h.22l5.85-12.37h5.1c-3,5.7-6,11.4-8.85,17.1v8.85Z" style="fill:#058b8c"/></svg>